<svg width="271" height="153" viewBox="0 0 271 153" fill="none" xmlns="http://www.w3.org/2000/svg">
<path d="M59.925 95.5H69.6V133H59.925V128.575C57.025 132.225 52.95 134.05 47.7 134.05C42.7 134.05 38.4 132.15 34.8 128.35C31.25 124.5 29.475 119.8 29.475 114.25C29.475 108.7 31.25 104.025 34.8 100.225C38.4 96.375 42.7 94.45 47.7 94.45C52.95 94.45 57.025 96.275 59.925 99.925V95.5ZM42.075 121.9C44.025 123.85 46.5 124.825 49.5 124.825C52.5 124.825 54.975 123.85 56.925 121.9C58.925 119.9 59.925 117.35 59.925 114.25C59.925 111.15 58.925 108.625 56.925 106.675C54.975 104.675 52.5 103.675 49.5 103.675C46.5 103.675 44.025 104.675 42.075 106.675C40.125 108.625 39.15 111.15 39.15 114.25C39.15 117.35 40.125 119.9 42.075 121.9ZM99.2232 94.45C103.323 94.45 106.698 95.825 109.348 98.575C112.048 101.325 113.398 105.125 113.398 109.975V133H103.723V111.175C103.723 108.675 103.048 106.775 101.698 105.475C100.348 104.125 98.5482 103.45 96.2982 103.45C93.7982 103.45 91.7982 104.225 90.2982 105.775C88.7982 107.325 88.0482 109.65 88.0482 112.75V133H78.3732V95.5H88.0482V99.7C90.3982 96.2 94.1232 94.45 99.2232 94.45ZM156.234 133H144.984L131.334 115.975V133H121.659V80.5H131.334V112L144.234 95.5H155.784L140.709 114.025L156.234 133ZM166.529 118.225C167.829 122.925 171.354 125.275 177.104 125.275C180.804 125.275 183.604 124.025 185.504 121.525L193.304 126.025C189.604 131.375 184.154 134.05 176.954 134.05C170.754 134.05 165.779 132.175 162.029 128.425C158.279 124.675 156.404 119.95 156.404 114.25C156.404 108.6 158.254 103.9 161.954 100.15C165.654 96.35 170.404 94.45 176.204 94.45C181.704 94.45 186.229 96.35 189.779 100.15C193.379 103.95 195.179 108.65 195.179 114.25C195.179 115.5 195.054 116.825 194.804 118.225H166.529ZM166.379 110.725H185.504C184.954 108.175 183.804 106.275 182.054 105.025C180.354 103.775 178.404 103.15 176.204 103.15C173.604 103.15 171.454 103.825 169.754 105.175C168.054 106.475 166.929 108.325 166.379 110.725ZM222.284 104.8H213.809V120.4C213.809 121.7 214.134 122.65 214.784 123.25C215.434 123.85 216.384 124.2 217.634 124.3C218.884 124.35 220.434 124.325 222.284 124.225V133C215.634 133.75 210.934 133.125 208.184 131.125C205.484 129.125 204.134 125.55 204.134 120.4V104.8H197.609V95.5H204.134V87.925L213.809 85V95.5H222.284V104.8ZM256.434 95.5H266.109V133H256.434V128.575C253.534 132.225 249.459 134.05 244.209 134.05C239.209 134.05 234.909 132.15 231.309 128.35C227.759 124.5 225.984 119.8 225.984 114.25C225.984 108.7 227.759 104.025 231.309 100.225C234.909 96.375 239.209 94.45 244.209 94.45C249.459 94.45 253.534 96.275 256.434 99.925V95.5ZM238.584 121.9C240.534 123.85 243.009 124.825 246.009 124.825C249.009 124.825 251.484 123.85 253.434 121.9C255.434 119.9 256.434 117.35 256.434 114.25C256.434 111.15 255.434 108.625 253.434 106.675C251.484 104.675 249.009 103.675 246.009 103.675C243.009 103.675 240.534 104.675 238.584 106.675C236.634 108.625 235.659 111.15 235.659 114.25C235.659 117.35 236.634 119.9 238.584 121.9Z" fill="#EDBECE"/>
<rect x="164" y="33.1388" width="17" height="4.25" fill="#1C597B"/>
<rect x="174.861" y="27" width="17" height="4.25" transform="rotate(90 174.861 27)" fill="#1C597B"/>
<path d="M73.725 0V72H55.3454V33.2229L37.7918 62.1257H35.9332L18.4829 33.3257V72H0V0H18.4829L36.8625 30.7543L55.3454 0H73.725Z" fill="#1C597B"/>
<path d="M103.689 54.72H131.672V72H85.2066V0H131.156V17.1771H103.689V27.1543H128.574V44.1257H103.689V54.72Z" fill="#1C597B"/>
<path d="M169.893 0C179.874 0 188.204 3.46286 194.881 10.3886C201.627 17.2457 205 25.7829 205 36C205 46.2171 201.627 54.7886 194.881 61.7143C188.204 68.5714 179.874 72 169.893 72H140.465V0H169.893ZM169.893 54.2057C174.918 54.2057 179.014 52.56 182.18 49.2686C185.347 45.9086 186.93 41.4857 186.93 36C186.93 30.5143 185.347 26.1257 182.18 22.8343C179.014 19.4743 174.918 17.7943 169.893 17.7943H159.464V54.2057H169.893Z" fill="#1C597B"/>
<rect width="19" height="133" fill="#1C597B"/>
</svg>
