<svg width="195" height="30" viewBox="0 0 195 30" fill="none" xmlns="http://www.w3.org/2000/svg">
    <path d="M54.7485 7.77284C56.4849 7.77284 57.868 8.32186 58.8978 9.41989C59.9477 10.5179 60.4727 11.9885 60.4727 13.8317V22.8905H56.5657V14.0964C56.5657 13.214 56.3436 12.5277 55.8994 12.0375C55.4552 11.5473 54.8293 11.3022 54.0216 11.3022C53.1332 11.3022 52.4366 11.5866 51.9319 12.1552C51.4473 12.7238 51.205 13.5473 51.205 14.6258V22.8905H47.298V14.0964C47.298 13.214 47.0759 12.5277 46.6317 12.0375C46.1875 11.5473 45.5616 11.3022 44.7539 11.3022C43.8857 11.3022 43.1891 11.5866 42.6641 12.1552C42.1594 12.7238 41.907 13.5473 41.907 14.6258V22.8905H38V8.1846H41.907V9.74342C42.8156 8.4297 44.2189 7.77284 46.1168 7.77284C47.9744 7.77284 49.3474 8.47872 50.2358 9.89048C51.2454 8.47872 52.7496 7.77284 54.7485 7.77284Z" fill="#EDBECE"/>
    <path d="M67.0922 17.0964C67.6172 18.9395 69.0406 19.8611 71.3626 19.8611C72.8568 19.8611 73.9875 19.3709 74.7547 18.3905L77.9045 20.1552C76.4104 22.2532 74.2096 23.3022 71.302 23.3022C68.7984 23.3022 66.7893 22.567 65.275 21.0964C63.7607 19.6258 63.0035 17.7728 63.0035 15.5375C63.0035 13.3219 63.7506 11.4787 65.2447 10.0081C66.7389 8.51793 68.657 7.77284 70.9992 7.77284C73.2202 7.77284 75.0475 8.51793 76.4811 10.0081C77.9348 11.4983 78.6617 13.3415 78.6617 15.5375C78.6617 16.0277 78.6112 16.5473 78.5103 17.0964H67.0922ZM67.0316 14.1552H74.7547C74.5326 13.1552 74.0682 12.4101 73.3615 11.9199C72.675 11.4297 71.8876 11.1846 70.9992 11.1846C69.9492 11.1846 69.081 11.4493 68.3945 11.9787C67.708 12.4885 67.2537 13.214 67.0316 14.1552Z" fill="#EDBECE"/>
    <path d="M92.7495 2.30225H96.6565V22.8905H92.7495V21.1552C91.5986 22.5866 89.9631 23.3022 87.843 23.3022C85.8037 23.3022 84.0572 22.5571 82.6035 21.067C81.1699 19.5571 80.4531 17.714 80.4531 15.5375C80.4531 13.3611 81.1699 11.5277 82.6035 10.0375C84.0572 8.52774 85.8037 7.77284 87.843 7.77284C89.9631 7.77284 91.5986 8.48852 92.7495 9.91989V2.30225ZM85.5413 18.5375C86.3489 19.3022 87.3585 19.6846 88.5699 19.6846C89.7814 19.6846 90.7808 19.3022 91.5683 18.5375C92.3558 17.7532 92.7495 16.7532 92.7495 15.5375C92.7495 14.3219 92.3558 13.3317 91.5683 12.567C90.7808 11.7826 89.7814 11.3905 88.5699 11.3905C87.3585 11.3905 86.3489 11.7826 85.5413 12.567C84.7538 13.3317 84.3601 14.3219 84.3601 15.5375C84.3601 16.7532 84.7538 17.7532 85.5413 18.5375Z" fill="#EDBECE"/>
    <path d="M111.738 8.1846H115.645V22.8905H111.738V21.1552C110.567 22.5866 108.922 23.3022 106.802 23.3022C104.783 23.3022 103.046 22.5571 101.592 21.067C100.159 19.5571 99.4421 17.714 99.4421 15.5375C99.4421 13.3611 100.159 11.5277 101.592 10.0375C103.046 8.52774 104.783 7.77284 106.802 7.77284C108.922 7.77284 110.567 8.48852 111.738 9.91989V8.1846ZM104.53 18.5375C105.318 19.3022 106.317 19.6846 107.529 19.6846C108.74 19.6846 109.74 19.3022 110.527 18.5375C111.335 17.7532 111.738 16.7532 111.738 15.5375C111.738 14.3219 111.335 13.3317 110.527 12.567C109.74 11.7826 108.74 11.3905 107.529 11.3905C106.317 11.3905 105.318 11.7826 104.53 12.567C103.743 13.3317 103.349 14.3219 103.349 15.5375C103.349 16.7532 103.743 17.7532 104.53 18.5375Z" fill="#1C597B"/>
    <path d="M127.608 7.77284C129.264 7.77284 130.627 8.31205 131.697 9.39048C132.787 10.4689 133.332 11.9591 133.332 13.8611V22.8905H129.425V14.3317C129.425 13.3513 129.153 12.6062 128.607 12.0964C128.062 11.567 127.335 11.3022 126.427 11.3022C125.417 11.3022 124.61 11.6062 124.004 12.214C123.398 12.8219 123.095 13.7336 123.095 14.9493V22.8905H119.188V8.1846H123.095V9.83166C124.044 8.45911 125.548 7.77284 127.608 7.77284Z" fill="#1C597B"/>
    <path d="M150.63 22.8905H146.087L140.575 16.214V22.8905H136.668V2.30225H140.575V14.6552L145.784 8.1846H150.449L144.361 15.4493L150.63 22.8905Z" fill="#1C597B"/>
    <path d="M154.787 17.0964C155.312 18.9395 156.736 19.8611 159.058 19.8611C160.552 19.8611 161.683 19.3709 162.45 18.3905L165.6 20.1552C164.106 22.2532 161.905 23.3022 158.997 23.3022C156.494 23.3022 154.485 22.567 152.97 21.0964C151.456 19.6258 150.699 17.7728 150.699 15.5375C150.699 13.3219 151.446 11.4787 152.94 10.0081C154.434 8.51793 156.352 7.77284 158.694 7.77284C160.915 7.77284 162.743 8.51793 164.176 10.0081C165.63 11.4983 166.357 13.3415 166.357 15.5375C166.357 16.0277 166.306 16.5473 166.205 17.0964H154.787ZM154.727 14.1552H162.45C162.228 13.1552 161.763 12.4101 161.057 11.9199C160.37 11.4297 159.583 11.1846 158.694 11.1846C157.644 11.1846 156.776 11.4493 156.09 11.9787C155.403 12.4885 154.949 13.214 154.727 14.1552Z" fill="#1C597B"/>
    <path d="M177.303 11.8317H173.88V17.9493C173.88 18.4591 174.012 18.8317 174.274 19.067C174.536 19.3022 174.92 19.4395 175.425 19.4787C175.93 19.4983 176.556 19.4885 177.303 19.4493V22.8905C174.617 23.1846 172.719 22.9395 171.609 22.1552C170.518 21.3709 169.973 19.9689 169.973 17.9493V11.8317H167.338V8.1846H169.973V5.21401L173.88 4.06695V8.1846H177.303V11.8317Z" fill="#1C597B"/>
    <path d="M191.093 8.1846H195V22.8905H191.093V21.1552C189.922 22.5866 188.276 23.3022 186.156 23.3022C184.137 23.3022 182.401 22.5571 180.947 21.067C179.513 19.5571 178.797 17.714 178.797 15.5375C178.797 13.3611 179.513 11.5277 180.947 10.0375C182.401 8.52774 184.137 7.77284 186.156 7.77284C188.276 7.77284 189.922 8.48852 191.093 9.91989V8.1846ZM183.885 18.5375C184.672 19.3022 185.672 19.6846 186.883 19.6846C188.095 19.6846 189.094 19.3022 189.882 18.5375C190.689 17.7532 191.093 16.7532 191.093 15.5375C191.093 14.3219 190.689 13.3317 189.882 12.567C189.094 11.7826 188.095 11.3905 186.883 11.3905C185.672 11.3905 184.672 11.7826 183.885 12.567C183.097 13.3317 182.704 14.3219 182.704 15.5375C182.704 16.7532 183.097 17.7532 183.885 18.5375Z" fill="#1C597B"/>
    <path d="M0 14.3022C0 6.57026 6.26801 0.302246 14 0.302246C21.732 0.302246 28 6.57026 28 14.3022V15.3022C28 23.0342 21.732 29.3022 14 29.3022C6.26801 29.3022 0 23.0342 0 15.3022V14.3022Z" fill="#1C597B"/>
    <path d="M4.49219 3.7262L20.6369 10.9424L12.6166 13.1002L9.36028 20.7243L4.49219 3.7262Z" fill="white"/>
</svg>