<svg width="273" height="41" viewBox="0 0 273 41" fill="none" xmlns="http://www.w3.org/2000/svg">
<path d="M76.6066 10.8759C79.0362 10.8759 80.9714 11.6441 82.4123 13.1805C83.8813 14.7169 84.6159 16.7746 84.6159 19.3535V32.0287H79.1492V19.7239C79.1492 18.4893 78.8384 17.529 78.2169 16.8432C77.5954 16.1573 76.7196 15.8143 75.5895 15.8143C74.3464 15.8143 73.3718 16.2121 72.6655 17.0078C71.9874 17.8034 71.6484 18.9557 71.6484 20.4646V32.0287H66.1817V19.7239C66.1817 18.4893 65.871 17.529 65.2494 16.8432C64.6279 16.1573 63.7521 15.8143 62.622 15.8143C61.4072 15.8143 60.4325 16.2121 59.698 17.0078C58.9917 17.8034 58.6386 18.9557 58.6386 20.4646V32.0287H53.1719V11.4521H58.6386V13.6332C59.9099 11.795 61.8734 10.8759 64.529 10.8759C67.1282 10.8759 69.0493 11.8636 70.2923 13.839C71.7049 11.8636 73.8097 10.8759 76.6066 10.8759Z" fill="#EDBECE"/>
<path d="M93.878 23.9215C94.6125 26.5005 96.6043 27.7899 99.8532 27.7899C101.944 27.7899 103.526 27.104 104.599 25.7323L109.007 28.2015C106.916 31.1371 103.837 32.6049 99.7684 32.6049C96.2652 32.6049 93.4542 31.576 91.3353 29.5184C89.2165 27.4607 88.157 24.868 88.157 21.7404C88.157 18.6402 89.2024 16.0612 91.293 14.0036C93.3836 11.9185 96.0675 10.8759 99.3447 10.8759C102.452 10.8759 105.009 11.9185 107.015 14.0036C109.049 16.0887 110.066 18.6676 110.066 21.7404C110.066 22.4263 109.996 23.1533 109.854 23.9215H93.878ZM93.7932 19.8062H104.599C104.289 18.407 103.639 17.3644 102.65 16.6785C101.69 15.9927 100.588 15.6497 99.3447 15.6497C97.8756 15.6497 96.6608 16.0201 95.7002 16.7609C94.7397 17.4742 94.104 18.4893 93.7932 19.8062Z" fill="#EDBECE"/>
<path d="M129.778 3.22144H135.245V32.0287H129.778V29.6007C128.168 31.6035 125.879 32.6049 122.913 32.6049C120.059 32.6049 117.616 31.5623 115.581 29.4772C113.576 27.3647 112.573 24.7857 112.573 21.7404C112.573 18.6951 113.576 16.1298 115.581 14.0447C117.616 11.9322 120.059 10.8759 122.913 10.8759C125.879 10.8759 128.168 11.8773 129.778 13.8801V3.22144ZM119.692 25.938C120.822 27.008 122.235 27.543 123.93 27.543C125.625 27.543 127.023 27.008 128.125 25.938C129.227 24.8406 129.778 23.4414 129.778 21.7404C129.778 20.0394 129.227 18.6539 128.125 17.5839C127.023 16.4865 125.625 15.9378 123.93 15.9378C122.235 15.9378 120.822 16.4865 119.692 17.5839C118.59 18.6539 118.039 20.0394 118.039 21.7404C118.039 23.4414 118.59 24.8406 119.692 25.938Z" fill="#EDBECE"/>
<path d="M156.348 11.4521H161.814V32.0287H156.348V29.6007C154.709 31.6035 152.406 32.6049 149.44 32.6049C146.615 32.6049 144.185 31.5623 142.151 29.4772C140.145 27.3647 139.142 24.7857 139.142 21.7404C139.142 18.6951 140.145 16.1298 142.151 14.0447C144.185 11.9322 146.615 10.8759 149.44 10.8759C152.406 10.8759 154.709 11.8773 156.348 13.8801V11.4521ZM146.262 25.938C147.364 27.008 148.762 27.543 150.457 27.543C152.152 27.543 153.551 27.008 154.652 25.938C155.783 24.8406 156.348 23.4414 156.348 21.7404C156.348 20.0394 155.783 18.6539 154.652 17.5839C153.551 16.4865 152.152 15.9378 150.457 15.9378C148.762 15.9378 147.364 16.4865 146.262 17.5839C145.16 18.6539 144.609 20.0394 144.609 21.7404C144.609 23.4414 145.16 24.8406 146.262 25.938Z" fill="white"/>
<path d="M178.552 10.8759C180.869 10.8759 182.776 11.6304 184.273 13.1394C185.799 14.6483 186.562 16.7334 186.562 19.3947V32.0287H181.095V20.0531C181.095 18.6813 180.714 17.6388 179.951 16.9255C179.188 16.1847 178.171 15.8143 176.9 15.8143C175.487 15.8143 174.357 16.2396 173.509 17.0901C172.662 17.9406 172.238 19.2163 172.238 20.9173V32.0287H166.771V11.4521H172.238V13.7567C173.566 11.8362 175.671 10.8759 178.552 10.8759Z" fill="white"/>
<path d="M210.765 32.0287H204.409L196.696 22.6869V32.0287H191.229V3.22144H196.696V20.5058L203.985 11.4521H210.511L201.993 21.6169L210.765 32.0287Z" fill="white"/>
<path d="M216.582 23.9215C217.317 26.5005 219.308 27.7899 222.557 27.7899C224.648 27.7899 226.23 27.104 227.303 25.7323L231.711 28.2015C229.62 31.1371 226.541 32.6049 222.472 32.6049C218.969 32.6049 216.158 31.576 214.039 29.5184C211.92 27.4607 210.861 24.868 210.861 21.7404C210.861 18.6402 211.906 16.0612 213.997 14.0036C216.088 11.9185 218.771 10.8759 222.049 10.8759C225.156 10.8759 227.713 11.9185 229.719 14.0036C231.753 16.0887 232.77 18.6676 232.77 21.7404C232.77 22.4263 232.7 23.1533 232.558 23.9215H216.582ZM216.497 19.8062H227.303C226.993 18.407 226.343 17.3644 225.354 16.6785C224.394 15.9927 223.292 15.6497 222.049 15.6497C220.58 15.6497 219.365 16.0201 218.404 16.7609C217.444 17.4742 216.808 18.4893 216.497 19.8062Z" fill="white"/>
<path d="M248.086 16.5551H243.297V25.115C243.297 25.8283 243.481 26.3496 243.848 26.6788C244.215 27.008 244.752 27.2001 245.458 27.2549C246.165 27.2824 247.04 27.2687 248.086 27.2138V32.0287C244.328 32.4402 241.673 32.0973 240.119 30.9999C238.593 29.9025 237.83 27.9408 237.83 25.115V16.5551H234.143V11.4521H237.83V7.29561L243.297 5.69063V11.4521H248.086V16.5551Z" fill="white"/>
<path d="M267.381 11.4521H272.848V32.0287H267.381V29.6007C265.743 31.6035 263.44 32.6049 260.474 32.6049C257.649 32.6049 255.219 31.5623 253.185 29.4772C251.179 27.3647 250.176 24.7857 250.176 21.7404C250.176 18.6951 251.179 16.1298 253.185 14.0447C255.219 11.9322 257.649 10.8759 260.474 10.8759C263.44 10.8759 265.743 11.8773 267.381 13.8801V11.4521ZM257.295 25.938C258.397 27.008 259.796 27.543 261.491 27.543C263.186 27.543 264.584 27.008 265.686 25.938C266.816 24.8406 267.381 23.4414 267.381 21.7404C267.381 20.0394 266.816 18.6539 265.686 17.5839C264.584 16.4865 263.186 15.9378 261.491 15.9378C259.796 15.9378 258.397 16.4865 257.295 17.5839C256.194 18.6539 255.643 20.0394 255.643 21.7404C255.643 23.4414 256.194 24.8406 257.295 25.938Z" fill="white"/>
<path d="M0 20.0118C0 9.19312 8.77027 0.422852 19.5889 0.422852C30.4076 0.422852 39.1779 9.19312 39.1779 20.0118V21.411C39.1779 32.2297 30.4076 41 19.5889 41C8.77027 41 0 32.2297 0 21.411V20.0118Z" fill="white"/>
<path d="M6.28516 5.21362L28.875 15.3106L17.653 18.3299L13.0966 28.9976L6.28516 5.21362Z" fill="#1C597B"/>
</svg>
