<svg width="20" height="20" viewBox="0 0 20 20" fill="none" xmlns="http://www.w3.org/2000/svg">
    <path d="M16.5482 19.8703H16.9282C17.6656 19.8714 18.3776 19.6008 18.9282 19.1103C19.2445 18.8274 19.4973 18.4805 19.6696 18.0926C19.842 17.7048 19.9301 17.2848 19.9282 16.8603L16.5482 19.8703ZM19.4412 17.9911C19.2832 18.3465 19.0517 18.6643 18.7619 18.9237C18.2571 19.3733 17.6045 19.6213 16.9285 19.6203H16.9282H16.5636C12.4332 19.1069 8.59092 17.2338 5.64227 14.2959C2.69001 11.3543 0.801899 7.51304 0.27617 3.37878L0.276184 3.37878L0.27582 3.37614C0.221809 2.98478 0.252758 2.58637 0.366559 2.20804C0.48036 1.82972 0.674341 1.48035 0.935298 1.18373C1.19625 0.887111 1.51806 0.6502 1.8788 0.489126C2.23955 0.328052 2.63077 0.246597 3.02582 0.250306L3.02582 0.250317H3.02817H6.02817V0.250344L6.0318 0.250291C6.68694 0.240766 7.32395 0.465466 7.82812 0.883927C8.33101 1.30133 8.66877 1.88415 8.78095 2.52789C8.81178 2.76304 8.85285 2.99898 8.90438 3.22572C9.0077 3.68099 9.14104 4.12891 9.30352 4.56657C9.4509 4.97228 9.44313 5.41816 9.2817 5.81852C9.12016 6.21913 8.81618 6.54584 8.42823 6.73579L8.41331 6.74309L8.39949 6.7523L7.97949 7.0323L7.78756 7.16026L7.8997 7.36185C8.45264 8.35584 9.1394 9.26923 9.94074 10.0765L9.94204 10.0777C10.7493 10.8791 11.6626 11.5658 12.6566 12.1188L12.887 12.2469L13.0028 12.0101L13.2227 11.5603C13.4126 11.1723 13.7394 10.8683 14.14 10.7068C14.5401 10.5454 14.9857 10.5376 15.3912 10.6847C15.8284 10.8501 16.2771 10.9836 16.7336 11.0843C16.7701 11.0926 16.8095 11.1023 16.8512 11.1125C17.0232 11.1547 17.2332 11.2062 17.4342 11.2101C18.053 11.3258 18.6137 11.6505 19.0222 12.1301C19.4347 12.6144 19.6665 13.2266 19.6782 13.8626L19.6782 16.8603L19.6782 16.8615C19.68 17.2505 19.5992 17.6356 19.4412 17.9911ZM18.2082 16.9606L18.2082 16.9587L18.1882 13.8422C18.1938 13.5528 18.0987 13.2704 17.9193 13.0432C17.739 12.815 17.4849 12.6569 17.2006 12.5959L17.1925 12.5941L17.1844 12.593C16.9173 12.5539 16.6537 12.505 16.3933 12.4465C15.8677 12.3272 15.3498 12.1764 14.8424 11.9949L14.6236 11.9167L14.5296 12.1291L13.9106 13.5268C13.8688 13.6161 13.8097 13.6963 13.7368 13.7628C13.6635 13.8298 13.5775 13.8815 13.484 13.9149L13.4839 13.9147L13.4732 13.9191C13.2923 13.9934 13.0896 13.9941 12.9082 13.9211C9.88138 12.5064 7.4483 10.0724 6.0348 7.04478C5.99328 6.95526 5.96983 6.85843 5.96581 6.75983C5.96177 6.66114 5.97728 6.56262 6.01142 6.46994C6.04557 6.37725 6.09769 6.29223 6.16479 6.21974C6.23189 6.14725 6.31264 6.08873 6.40242 6.04754L6.40344 6.04707L7.80345 5.39707L8.01413 5.29925L7.93203 5.08195C7.74558 4.58848 7.59529 4.08209 7.48237 3.5668L7.48238 3.5668L7.48207 3.56544C7.42347 3.30502 7.37462 3.04125 7.33553 2.77412L7.33434 2.76595L7.33261 2.75788C7.27162 2.47359 7.11344 2.21946 6.88529 2.03922C6.6579 1.85959 6.3752 1.76455 6.08554 1.77032L3.08817 1.77032L3.08785 1.77032C2.91037 1.77054 2.73497 1.80856 2.57332 1.88184C2.41168 1.95512 2.26749 2.06198 2.15035 2.19532L2.15031 2.19528L2.14697 2.19925C2.03027 2.33778 1.94286 2.49854 1.89004 2.6718C1.83721 2.84507 1.82006 3.02724 1.83963 3.20732L1.8396 3.20732L1.84005 3.21093C2.30926 7.01338 4.031 10.5514 6.73369 13.267C9.43638 15.9825 12.9662 17.721 16.7664 18.2083L16.7682 18.2085C16.9493 18.2304 17.133 18.2142 17.3075 18.161C17.482 18.1078 17.6435 18.0188 17.7816 17.8996L17.7832 17.8981C17.9165 17.781 18.0234 17.6368 18.0966 17.4752C18.1699 17.3135 18.2079 17.1381 18.2082 16.9606Z" fill="#1C597B" stroke="white" stroke-width="0.5"/>
</svg>