<svg width="26" height="26" viewBox="0 0 26 26" fill="none" xmlns="http://www.w3.org/2000/svg">
    <path fill-rule="evenodd" clip-rule="evenodd" d="M26.0108 13.0054C26.0108 20.1881 20.1881 26.0108 13.0054 26.0108C5.82272 26.0108 0 20.1881 0 13.0054C0 5.82272 5.82272 0 13.0054 0C20.1881 0 26.0108 5.82272 26.0108 13.0054ZM13.4591 9.59437C12.1922 10.125 9.66903 11.2187 5.87895 12.8647C5.27253 13.1137 4.94767 13.352 4.91518 13.5902C4.86723 13.993 5.37144 14.1495 6.05163 14.3606C6.1394 14.3878 6.23011 14.416 6.32293 14.4457C6.99432 14.6623 7.88228 14.9113 8.34792 14.9222C8.77024 14.933 9.23588 14.7597 9.75567 14.4024C13.2967 12.0092 15.1159 10.7964 15.235 10.7747C15.3217 10.7531 15.43 10.7314 15.5058 10.7964C15.5816 10.8613 15.5816 10.9913 15.5707 11.0238C15.5191 11.239 13.4065 13.2002 12.4452 14.0927C12.1976 14.3226 12.0263 14.4816 11.9864 14.5215C11.8848 14.626 11.7814 14.725 11.682 14.8202C11.0604 15.4152 10.594 15.8616 11.7049 16.5898C12.2099 16.9232 12.6172 17.2011 13.0183 17.4748C13.5031 17.8055 13.9788 18.1301 14.607 18.539C14.755 18.6362 14.8966 18.7369 15.0348 18.8353C15.5743 19.219 16.061 19.5653 16.6645 19.5136C17.011 19.4811 17.3683 19.1562 17.5524 18.1816C17.9856 15.8859 18.8302 10.8938 19.0251 8.83635C19.0468 8.66309 19.0251 8.43569 19.0035 8.3274C18.9818 8.21911 18.9493 8.07834 18.8194 7.97005C18.657 7.8401 18.4187 7.81844 18.3104 7.81844C17.8231 7.82927 17.0651 8.08916 13.4591 9.59437Z" fill="#2AABEE"/>
</svg>