<svg width="35" height="21" viewBox="0 0 35 21" fill="none" xmlns="http://www.w3.org/2000/svg">
    <path d="M13.3157 10.8846C13.3157 10.6881 13.3157 10.4917 13.3157 10.2953C13.3157 8.60266 13.325 6.91006 13.3118 5.21795C13.3055 4.38786 13.0849 3.6188 12.5226 2.96751C12.3559 2.77441 12.195 2.56987 12.0696 2.34959C11.467 1.2897 12.2242 0.0238266 13.48 0.0128605C15.3025 -0.00335022 17.125 0.0071391 18.947 0.00809267C19.1735 0.00809267 19.4038 -0.00430379 19.6254 0.0309785C20.4754 0.167816 20.9571 0.692759 21.0484 1.56814C21.0732 1.80463 21.0858 2.0435 21.0863 2.28141C21.0893 4.53042 21.0883 6.77895 21.0883 9.02795C21.0883 9.14429 21.0883 9.26015 21.0883 9.37648C21.115 9.39317 21.1417 9.41033 21.1685 9.42702C21.5038 9.11473 21.8649 8.82436 22.1696 8.48537C23.3161 7.20901 24.2332 5.77626 25.037 4.27677C25.5371 3.34369 25.9876 2.38392 26.443 1.42844C26.8775 0.517778 27.5948 0.0276409 28.6154 0.0128605C29.9193 -0.00573415 31.2237 -0.00335022 32.5272 0.0147677C33.1478 0.0233499 33.7155 0.199284 34.0741 0.753788C34.2904 1.08849 34.3575 1.45848 34.2933 1.8504C34.1431 2.76774 33.7286 3.5859 33.2858 4.38977C32.1097 6.52339 30.7382 8.53638 29.3264 10.5241C29.2662 10.6085 29.2035 10.6919 29.149 10.7801C28.8939 11.1959 28.9021 11.2441 29.2453 11.5954C30.0185 12.3869 30.8014 13.1693 31.5581 13.9756C32.551 15.0336 33.5167 16.1163 34.2933 17.3436C34.6058 17.8371 34.8658 18.351 34.9713 18.9361C35.1312 19.8234 34.6116 20.6649 33.7116 20.8856C33.4243 20.9562 33.1206 20.9891 32.8237 20.992C31.6412 21.0034 30.4588 20.991 29.2759 20.9982C28.5449 21.0025 27.8888 20.7884 27.3732 20.2901C26.6418 19.5826 25.9517 18.834 25.245 18.1017C24.3138 17.1367 23.3593 16.1969 22.2017 15.4879C21.9723 15.3473 21.7094 15.2481 21.4494 15.1699C21.1529 15.0808 21.1014 15.1256 21.0999 15.4269C21.0936 16.5393 21.1116 17.6516 21.0849 18.7635C21.0761 19.1292 21.0222 19.5187 20.8793 19.8515C20.5799 20.5495 19.9195 20.7884 19.2177 20.8899C17.1974 21.1817 15.2481 20.8809 13.3672 20.1352C10.3405 18.9351 7.99211 16.9064 6.09818 14.3389C4.57215 12.2706 3.20942 10.1036 2.07218 7.80356C1.28681 6.21538 0.601556 4.58811 0.176794 2.86786C0.050921 2.35436 -0.0764102 1.83228 0.056267 1.29208C0.209356 0.668443 0.602042 0.274617 1.2246 0.110602C1.45642 0.0495731 1.70283 0.0147677 1.94291 0.0128605C3.16568 0.00284801 4.38893 0.00427838 5.61219 0.00809267C6.79462 0.011907 7.47501 0.475344 7.90901 1.56147C8.30461 2.55128 8.66765 3.55444 9.0997 4.52851C9.95992 6.46999 10.9616 8.33709 12.3155 10.0006C12.527 10.26 12.7748 10.4912 13.011 10.731C13.0766 10.7978 13.1612 10.8469 13.237 10.9041C13.2628 10.8974 13.289 10.8912 13.3157 10.8846ZM19.5827 5.69044C19.5822 5.69044 19.5817 5.69044 19.5812 5.69044C19.5812 4.72924 19.5827 3.76756 19.5802 2.80636C19.5793 2.47308 19.5681 2.13933 19.5652 1.80606C19.5632 1.55908 19.4534 1.4766 19.1924 1.47803C17.3864 1.48947 15.5805 1.4828 13.774 1.48709C13.6438 1.48756 13.513 1.52809 13.3828 1.5505C13.445 1.66493 13.4873 1.79652 13.5728 1.8914C14.4714 2.89027 14.8228 4.07556 14.8238 5.38244C14.8247 6.95583 14.8262 8.52876 14.8218 10.1022C14.8209 10.4197 14.8082 10.7377 14.7786 11.0538C14.6546 12.3774 13.513 12.9114 12.4123 12.1271C11.9472 11.7957 11.5229 11.3823 11.1613 10.9418C9.46031 8.8687 8.27837 6.50527 7.2568 4.0584C6.96277 3.35418 6.70131 2.63662 6.42186 1.92668C6.29939 1.61534 6.06319 1.48136 5.72251 1.4828C4.46718 1.48852 3.21185 1.4828 1.95652 1.48709C1.51474 1.48852 1.45594 1.57291 1.53613 2.00631C1.79565 3.40663 2.31129 4.72447 2.89012 6.01942C3.8937 8.26557 5.15243 10.3725 6.54967 12.4031C7.64171 13.9904 8.84212 15.4808 10.3735 16.688C12.1916 18.1212 14.2027 19.1397 16.5452 19.4415C17.3928 19.5506 18.2398 19.5621 19.0845 19.4152C19.5209 19.3394 19.5856 19.2636 19.5841 18.834C19.5817 18.095 19.5661 17.356 19.5739 16.6174C19.5797 16.062 19.5865 15.5041 19.6444 14.9525C19.7037 14.387 19.9807 13.9284 20.5736 13.7639C20.8555 13.6857 21.1665 13.6676 21.4606 13.6833C22.2182 13.7243 22.8442 14.0991 23.442 14.5158C24.6706 15.3716 25.7184 16.4205 26.7346 17.5028C27.2609 18.0631 27.7936 18.618 28.336 19.163C28.5425 19.3704 28.8054 19.5125 29.1121 19.5135C30.4243 19.5182 31.736 19.5149 33.0482 19.5139C33.0803 19.5139 33.1133 19.512 33.1449 19.5073C33.4778 19.4562 33.5794 19.3432 33.4467 19.0424C33.2489 18.5942 33.0312 18.1446 32.7532 17.7417C31.7773 16.3295 30.5832 15.0955 29.3891 13.863C28.8764 13.3338 28.3389 12.8237 27.866 12.2615C27.346 11.6436 27.293 10.9494 27.7275 10.2476C27.8786 10.0039 28.0434 9.7684 28.2008 9.5281C29.3366 7.79164 30.4899 6.0652 31.6004 4.313C32.099 3.5263 32.5413 2.70242 32.778 1.78937C32.8368 1.56194 32.7561 1.50139 32.5568 1.49185C32.5082 1.48947 32.4596 1.48661 32.411 1.48661C31.164 1.48613 29.9164 1.48852 28.6693 1.48566C28.2465 1.4847 27.9851 1.68638 27.8038 2.05494C27.2269 3.22593 26.6651 4.40645 26.0367 5.55074C25.2484 6.98635 24.3309 8.34472 23.2121 9.55814C22.7509 10.0583 22.2586 10.537 21.6122 10.8149C20.8181 11.1568 20.0725 10.8827 19.7557 10.0988C19.6424 9.81894 19.5934 9.49854 19.5885 9.1953C19.572 8.0267 19.5827 6.85857 19.5827 5.69044Z" fill="#1C597B"/>
</svg>