<svg width="26" height="26" viewBox="0 0 26 26" fill="none" xmlns="http://www.w3.org/2000/svg">
    <path fill-rule="evenodd" clip-rule="evenodd" d="M22.2725 3.75889C24.6792 6.2009 26.0017 9.42428 26.0005 12.8499C25.9973 20.0026 20.1485 25.8232 12.9633 25.8232H12.9577C10.7759 25.8223 8.63215 25.2775 6.7279 24.2439L0 26.0001L1.79982 19.4587C0.659081 17.4913 0.0589444 15.2594 0.0596531 12.9728C0.0626654 5.81951 5.91059 0 13.0968 0C16.5622 0.00175275 19.8162 1.33578 22.2725 3.75889ZM7.5774 22.2621L7.18138 22.0286L3.08036 23.0989L4.17521 19.12L3.9174 18.7123C2.83223 16.9934 2.25792 15.0038 2.26086 12.9737C2.26299 7.02843 7.1238 2.19153 13.1009 2.19153C14.5244 2.1882 15.9344 2.46597 17.2494 3.00876C18.5643 3.55154 19.758 4.34857 20.7614 5.35369C22.8073 7.39177 23.9333 10.1012 23.9322 12.9823C23.9298 18.928 19.0691 23.7654 13.0966 23.7654H13.0926C11.1477 23.7645 9.24067 23.2447 7.5774 22.2621Z" fill="#55CD63"/>
    <path fill-rule="evenodd" clip-rule="evenodd" d="M9.70607 7.41592C9.4619 6.87601 9.20498 6.86508 8.97304 6.85573L8.34863 6.84814C8.1314 6.84814 7.77844 6.92928 7.48005 7.25382C7.18167 7.57836 6.33984 8.36273 6.33984 9.95809C6.33984 11.5535 7.50716 13.095 7.66982 13.3116C7.83248 13.5282 9.9233 16.9064 13.2344 18.2062C15.986 19.2864 16.5459 19.0715 17.1434 19.0175C17.7409 18.9636 19.0707 18.2332 19.3419 17.476C19.6132 16.7188 19.6134 16.07 19.5321 15.9344C19.4507 15.7988 19.2335 15.7182 18.9075 15.5559C18.5814 15.3936 16.9802 14.6093 16.6816 14.501C16.3831 14.3927 16.166 14.3389 15.9486 14.6634C15.7312 14.9879 15.1077 15.718 14.9175 15.9344C14.7274 16.1508 14.5376 16.178 14.2116 16.0159C13.8856 15.8538 12.8366 15.5113 11.5921 14.4066C10.6237 13.5471 9.97008 12.4856 9.77978 12.1613C9.58948 11.8369 9.75958 11.6612 9.92295 11.4997C10.0691 11.3543 10.2486 11.121 10.4118 10.9317C10.575 10.7425 10.6287 10.6072 10.7371 10.3911C10.8456 10.175 10.7915 9.98526 10.71 9.82316C10.6285 9.66107 9.99559 8.05724 9.70607 7.41592Z" fill="#55CD63"/>
</svg>  